# xmcd CD Database Entry
#
# Track frame offsets:
# 150
# 12247
# 24210
# 34635
# 48377
# 60980
# 73557
# 87455
# 101437
# 114960
# 125630
# 140795
# 151845
# 163380
# 173500
# 183997
# 198400
# 217892
# 229047
# 245972
#
# Disc length: 3445 seconds
#
# Revision: 8
# Processed by: cddbd v1.5.2PL0 Copyright (c) Steve Scherf et al.
# Submitted via: tcd 2.0b
#
DISCID=0b0d7314
DTITLE=FRNK POURCEL
DYEAR=1900
DGENRE=
TTITLE0=トラック 1
TTITLE1=トラック 2
TTITLE2=トラック 3
TTITLE3=トラック 4
TTITLE4=トラック 5
TTITLE5=トラック 6
TTITLE6=トラック 7
TTITLE7=トラック 8
TTITLE8=トラック 9
TTITLE9=トラック 10
TTITLE10=トラック 11
TTITLE11=トラック 12
TTITLE12=トラック 13
TTITLE13=トラック 14
TTITLE14=トラック 15
TTITLE15=トラック 16
TTITLE16=トラック 17
TTITLE17=トラック 18
TTITLE18=トラック 19
TTITLE19=トラック 20
EXTD=mood music
EXTT0=
EXTT1=
EXTT2=
EXTT3=
EXTT4=
EXTT5=
EXTT6=
EXTT7=
EXTT8=
EXTT9=
EXTT10=
EXTT11=
EXTT12=
EXTT13=
EXTT14=
EXTT15=
EXTT16=
EXTT17=
EXTT18=
EXTT19=
PLAYORDER=
